<svg xmlns="http://www.w3.org/2000/svg" width="72.24" height="73" viewBox="0 0 72.24 73">
  <defs>
    <style>
      .cls-1 {
        fill: #d4d2d6;
      }

      .cls-2 {
        fill: #fff;
        fill-rule: evenodd;
      }
    </style>
  </defs>
  <g id="그룹_65963" data-name="그룹 65963" transform="translate(-169.382 -340.62)">
    <path id="패스_83260" data-name="패스 83260" class="cls-1" d="M205.5,340.62a36.579,36.579,0,0,0-27.09,60.64c3.79-9.68,14.45-16.65,26.99-16.65v.01c12.62,0,23.31,7.04,27.05,16.8a36.579,36.579,0,0,0-26.95-60.8Zm15.25,24.93a15.345,15.345,0,1,1-30.69,0v-.02a15.345,15.345,0,0,1,30.69.01Z"/>
    <path id="패스_83261" data-name="패스 83261" class="cls-2" d="M220.752,365.54v.01a15.345,15.345,0,1,1-30.69,0v-.02a15.345,15.345,0,0,1,30.69.01Z"/>
    <path id="패스_83262" data-name="패스 83262" class="cls-2" d="M232.452,401.42a36.2,36.2,0,0,1-14.27,9.89,35.855,35.855,0,0,1-39.77-10.05c3.79-9.68,14.45-16.65,26.99-16.65v.01C218.022,384.62,228.712,391.66,232.452,401.42Z"/>
  </g>
</svg>
